<!DOCTYPE svg PUBLIC "-//W3C//DTD SVG 20010904//EN" "http://www.w3.org/TR/2001/REC-SVG-20010904/DTD/svg10.dtd">
<svg version="1.0" xmlns="http://www.w3.org/2000/svg" width="216px" height="217px" viewBox="0 0 2160 2170" preserveAspectRatio="xMidYMid meet">
<g id="layer1" fill="#ffd05b" stroke="none">
 <path d="M342 1260 c-27 -26 -28 -64 -2 -90 17 -17 33 -20 108 -20 100 0 122 12 122 68 0 48 -29 62 -125 62 -68 0 -85 -3 -103 -20z"/>
 <path d="M702 1203 c3 -45 15 -102 28 -136 30 -80 111 -166 192 -203 56 -26 74 -29 163 -29 91 0 105 3 158 30 77 38 158 126 187 202 13 34 25 91 28 136 l5 77 -67 0 -66 0 0 -62 c0 -180 -159 -298 -332 -246 -98 29 -172 141 -166 249 l3 59 -69 0 -69 0 5 -77z"/>
 <path d="M1612 1264 c-15 -10 -22 -25 -22 -48 0 -54 23 -66 123 -66 96 0 127 16 127 65 0 47 -35 65 -125 65 -57 0 -87 -5 -103 -16z"/>
 <path d="M594 809 c-71 -69 -81 -88 -63 -121 16 -30 28 -38 60 -38 35 0 149 117 149 154 0 29 -35 66 -63 66 -10 0 -47 -28 -83 -61z"/>
 <path d="M1455 858 c-54 -31 -48 -67 27 -144 60 -63 92 -77 124 -56 19 12 35 52 29 71 -7 24 -129 141 -147 141 -7 0 -22 -6 -33 -12z"/>
 <path d="M1041 683 c-20 -17 -22 -26 -19 -118 3 -97 4 -100 31 -115 24 -13 30 -13 55 0 26 15 27 19 30 112 2 87 0 100 -18 118 -25 25 -51 26 -79 3z"/>
 </g>
<g id="layer2" fill="#fefef5" stroke="none">
 <path d="M930 2159 c-462 -60 -846 -436 -920 -901 -20 -123 -8 -351 24 -466 112 -401 438 -702 842 -778 122 -22 366 -15 476 15 317 87 570 299 709 596 112 239 130 554 45 800 -39 115 -64 165 -131 265 -226 341 -632 523 -1045 469z m589 -685 c27 -34 26 -50 -4 -79 l-24 -25 -411 0 -411 0 -24 25 c-30 29 -31 45 -4 79 l20 26 419 0 419 0 20 -26z m-971 -210 c27 -18 30 -69 5 -96 -13 -15 -32 -18 -105 -18 -97 0 -128 15 -128 65 0 47 35 65 125 65 57 0 87 -5 103 -16z m284 -43 c-5 -77 25 -148 84 -200 164 -144 414 -26 414 197 l0 62 66 0 67 0 -5 -77 c-3 -45 -15 -102 -28 -136 -29 -76 -110 -164 -187 -202 -53 -27 -67 -30 -158 -30 -89 0 -107 3 -163 29 -81 37 -162 123 -192 203 -13 34 -25 91 -28 136 l-5 77 69 0 69 0 -3 -59z m986 39 c27 -26 28 -64 2 -90 -17 -17 -33 -20 -107 -20 -100 0 -123 12 -123 66 0 50 28 64 125 64 68 0 85 -3 103 -20z m-1100 -410 c37 -35 28 -65 -40 -136 -60 -63 -92 -77 -124 -56 -19 12 -35 52 -29 71 9 28 131 141 152 141 11 0 29 -9 41 -20z m848 -41 c71 -69 81 -88 63 -121 -16 -30 -28 -38 -60 -38 -19 0 -43 17 -87 64 -75 77 -81 113 -27 144 34 19 44 14 111 -49z m-446 -129 c18 -18 20 -31 18 -118 -3 -93 -4 -97 -30 -112 -25 -13 -31 -13 -55 0 -27 15 -28 18 -31 115 -3 92 -1 101 19 118 28 23 54 22 79 -3z"/>
 </g>

</svg>