<!DOCTYPE svg PUBLIC "-//W3C//DTD SVG 20010904//EN" "http://www.w3.org/TR/2001/REC-SVG-20010904/DTD/svg10.dtd">
<svg width="128px" height="128px" viewBox="0 0 128 128" version="1.1" xmlns="http://www.w3.org/2000/svg" xmlns:xlink="http://www.w3.org/1999/xlink">
    <title>sunrise theme icon</title>
    <defs>
        <circle id="path-1" cx="64" cy="64" r="64"></circle>
        <mask id="mask-2" maskContentUnits="userSpaceOnUse" maskUnits="objectBoundingBox" x="0" y="0" width="128" height="128" fill="white">
            <use xlink:href="#path-1"></use>
        </mask>
    </defs>
    <g id="Page-1" stroke="none" stroke-width="1" fill="none" fill-rule="evenodd">
        <g id="layer1">
            <use id="Oval" stroke="#F1F1F1" mask="url(#mask-2)" stroke-width="2" fill="#FEFEF5" xlink:href="#path-1"></use>
            <path d="M91.6111423,38.7320035 C93.1199861,37.2231596 95.6094757,37.26633 97.1715729,38.8284271 C98.73367,40.3905243 98.7768404,42.8800139 97.2679965,44.3888577 L90.7111882,50.9456661 C89.2023443,52.4545099 86.7128548,52.4113396 85.1507576,50.8492424 C83.5886604,49.2871452 83.5454901,46.7976557 85.0543339,45.2888118 L91.6111423,38.7320035 L91.6111423,38.7320035 Z" id="Path" fill="#FFD05B"></path>
            <path d="M36.3888577,38.7320035 C34.8800139,37.2231596 32.3905243,37.26633 30.8284271,38.8284271 C29.26633,40.3905243 29.2231596,42.8800139 30.7320035,44.3888577 L37.2888118,50.9456661 C38.7976557,52.4545099 41.2871452,52.4113396 42.8492424,50.8492424 C44.4113396,49.2871452 44.4545099,46.7976557 42.9456661,45.2888118 L36.3888577,38.7320035 L36.3888577,38.7320035 Z" id="Path" fill="#FFD05B"></path>
            <path d="M68,28.8636364 C68,26.7298089 66.209139,25 64,25 C61.790861,25 60,26.7298089 60,28.8636364 L60,38.1363636 C60,40.2701911 61.790861,42 64,42 C66.209139,42 68,40.2701911 68,38.1363636 L68,28.8636364 L68,28.8636364 Z" id="Path" fill="#FFD05B"></path>
            <path d="M107.136364,76 C109.270191,76 111,74.209139 111,72 C111,69.790861 109.270191,68 107.136364,68 L97.8636364,68 C95.7298089,68 94,69.790861 94,72 C94,74.209139 95.7298089,76 97.8636364,76 L107.136364,76 L107.136364,76 Z" id="Path" fill="#FFD05B"></path>
            <path d="M30.1363636,76 C32.2701911,76 34,74.209139 34,72 C34,69.790861 32.2701911,68 30.1363636,68 L20.8636364,68 C18.7298089,68 17,69.790861 17,72 C17,74.209139 18.7298089,76 20.8636364,76 L30.1363636,76 L30.1363636,76 Z" id="Path" fill="#FFD05B"></path>
            <path d="M86.2095423,78 C86.725035,76.0871796 87,74.0757006 87,72 C87,59.2974508 76.7025492,49 64,49 C51.2974508,49 41,59.2974508 41,72 C41,74.0757006 41.274965,76.0871796 41.7904577,78 L50.2481311,78 C49.4453425,76.162613 49,74.1333141 49,72 C49,63.7157288 55.7157288,57 64,57 C72.2842712,57 79,63.7157288 79,72 C79,74.1333141 78.5546575,76.162613 77.7518689,78 L86.2095423,78 L86.2095423,78 Z" id="Path" fill="#FFD05B"></path>
        </g>
    </g>
</svg>
